<svg width="17" height="13" viewBox="0 0 17 13" fill="none" xmlns="http://www.w3.org/2000/svg">
<path d="M1.03287 6.61991C0.930725 6.45818 0.879655 6.37731 0.851066 6.25258C0.829592 6.1589 0.829592 6.01115 0.851066 5.91746C0.879655 5.79273 0.930725 5.71187 1.03287 5.55014C1.87692 4.21365 4.38932 0.835022 8.21808 0.835022C12.0468 0.835022 14.5592 4.21365 15.4033 5.55014C15.5054 5.71187 15.5565 5.79273 15.5851 5.91746C15.6066 6.01115 15.6066 6.1589 15.5851 6.25258C15.5565 6.37731 15.5054 6.45818 15.4033 6.61991C14.5592 7.95639 12.0468 11.335 8.21808 11.335C4.38932 11.335 1.87692 7.95639 1.03287 6.61991Z" stroke="#9CA6B7" stroke-width="1.67" stroke-linecap="round" stroke-linejoin="round"/>
<path d="M8.21808 8.33502C9.46072 8.33502 10.4681 7.32766 10.4681 6.08502C10.4681 4.84238 9.46072 3.83502 8.21808 3.83502C6.97544 3.83502 5.96808 4.84238 5.96808 6.08502C5.96808 7.32766 6.97544 8.33502 8.21808 8.33502Z" stroke="#9CA6B7" stroke-width="1.67" stroke-linecap="round" stroke-linejoin="round"/>
</svg>
