<svg width="12" height="12" viewBox="0 0 12 12" fill="none" xmlns="http://www.w3.org/2000/svg">
<path d="M0 3.2C0 2.0799 0 1.51984 0.217987 1.09202C0.409734 0.715695 0.715695 0.409734 1.09202 0.217987C1.51984 0 2.0799 0 3.2 0H8.8C9.92011 0 10.4802 0 10.908 0.217987C11.2843 0.409734 11.5903 0.715695 11.782 1.09202C12 1.51984 12 2.0799 12 3.2V8.8C12 9.92011 12 10.4802 11.782 10.908C11.5903 11.2843 11.2843 11.5903 10.908 11.782C10.4802 12 9.9201 12 8.8 12H3.2C2.0799 12 1.51984 12 1.09202 11.782C0.715695 11.5903 0.409734 11.2843 0.217987 10.908C0 10.4802 0 9.9201 0 8.8V3.2Z" fill="#344054"/>
</svg>
