<svg width="14" height="16" viewBox="0 0 14 16" fill="none" xmlns="http://www.w3.org/2000/svg">
<path d="M10.585 6.08502V4.58502C10.585 2.51395 8.90603 0.835022 6.83496 0.835022C4.76389 0.835022 3.08496 2.51395 3.08496 4.58502V6.08502M6.83496 9.46002V10.96M4.43496 14.335H9.23496C10.4951 14.335 11.1251 14.335 11.6064 14.0898C12.0298 13.8741 12.374 13.5299 12.5897 13.1065C12.835 12.6252 12.835 11.9951 12.835 10.735V9.68502C12.835 8.4249 12.835 7.79484 12.5897 7.31354C12.374 6.89018 12.0298 6.54597 11.6064 6.33026C11.1251 6.08502 10.4951 6.08502 9.23496 6.08502H4.43496C3.17484 6.08502 2.54478 6.08502 2.06348 6.33026C1.64012 6.54597 1.29591 6.89018 1.0802 7.31354C0.834961 7.79484 0.834961 8.4249 0.834961 9.68502V10.735C0.834961 11.9951 0.834961 12.6252 1.0802 13.1065C1.29591 13.5299 1.64012 13.8741 2.06348 14.0898C2.54478 14.335 3.17484 14.335 4.43496 14.335Z" stroke="#9CA6B7" stroke-width="1.67" stroke-linecap="round" stroke-linejoin="round"/>
</svg>
