<svg width="17" height="14" viewBox="0 0 17 14" fill="none" xmlns="http://www.w3.org/2000/svg">
<path d="M0.834961 3.08502L6.95865 7.3716C7.45453 7.71872 7.70247 7.89228 7.97216 7.9595C8.21038 8.01888 8.45954 8.01888 8.69776 7.9595C8.96745 7.89228 9.21539 7.71872 9.71127 7.37161L15.835 3.08502M4.43496 12.835H12.235C13.4951 12.835 14.1251 12.835 14.6064 12.5898C15.0298 12.3741 15.374 12.0299 15.5897 11.6065C15.835 11.1252 15.835 10.4951 15.835 9.23502V4.43502C15.835 3.1749 15.835 2.54484 15.5897 2.06354C15.374 1.64018 15.0298 1.29597 14.6064 1.08026C14.1251 0.835022 13.4951 0.835022 12.235 0.835022H4.43496C3.17484 0.835022 2.54478 0.835022 2.06348 1.08026C1.64012 1.29597 1.29591 1.64018 1.0802 2.06354C0.834961 2.54484 0.834961 3.1749 0.834961 4.43502V9.23502C0.834961 10.4951 0.834961 11.1252 1.0802 11.6065C1.29591 12.0299 1.64012 12.3741 2.06348 12.5898C2.54478 12.835 3.17484 12.835 4.43496 12.835Z" stroke="#9CA6B7" stroke-width="1.67" stroke-linecap="round" stroke-linejoin="round"/>
</svg>
