<svg width="17" height="17" viewBox="0 0 17 17" fill="none" xmlns="http://www.w3.org/2000/svg">
<path d="M13.5353 9.83496H3.68351C2.92389 9.83496 2.54408 9.83496 2.24171 9.69334C1.97536 9.56858 1.75157 9.36827 1.59816 9.11733C1.42401 8.83245 1.38207 8.45496 1.29818 7.7L0.859429 3.75122C0.833807 3.52062 0.820996 3.40532 0.858075 3.31608C0.89064 3.2377 0.948829 3.17269 1.02313 3.13167C1.10773 3.08496 1.22374 3.08496 1.45576 3.08496H13.9103M15.7854 0.834961H14.8491C14.6506 0.834961 14.5514 0.834961 14.4737 0.872704C14.4054 0.905932 14.3487 0.959141 14.3113 1.02528C14.2688 1.10041 14.2626 1.19945 14.2502 1.39753L13.5706 12.2724C13.5582 12.4705 13.552 12.5695 13.5095 12.6446C13.4721 12.7108 13.4154 12.764 13.3471 12.7972C13.2694 12.835 13.1702 12.835 12.9717 12.835H3.0354M11.6604 15.46H11.6529M4.9104 15.46H4.9029M11.2854 15.46C11.2854 15.6671 11.4533 15.835 11.6604 15.835C11.8675 15.835 12.0354 15.6671 12.0354 15.46C12.0354 15.2529 11.8675 15.085 11.6604 15.085C11.4533 15.085 11.2854 15.2529 11.2854 15.46ZM4.5354 15.46C4.5354 15.6671 4.70329 15.835 4.9104 15.835C5.11751 15.835 5.2854 15.6671 5.2854 15.46C5.2854 15.2529 5.11751 15.085 4.9104 15.085C4.70329 15.085 4.5354 15.2529 4.5354 15.46Z" stroke="#FFA200" stroke-width="1.67" stroke-linecap="round" stroke-linejoin="round"/>
</svg>
