<svg width="17" height="14" viewBox="0 0 17 14" fill="none" xmlns="http://www.w3.org/2000/svg">
<path d="M2.33496 4.95996V3.23496C2.33496 2.39488 2.33496 1.97484 2.49845 1.65398C2.64226 1.37173 2.87173 1.14226 3.15397 0.998453C3.47484 0.834963 3.89489 0.834962 4.73496 0.834961H13.435C14.275 0.834961 14.6951 0.834961 15.0159 0.998451C15.2982 1.14226 15.5277 1.37173 15.6715 1.65398C15.835 1.97484 15.835 2.39488 15.835 3.23496V10.435C15.835 11.275 15.835 11.6951 15.6715 12.0159C15.5277 12.2982 15.2982 12.5277 15.0159 12.6715C14.6951 12.835 14.275 12.835 13.435 12.835L4.73496 12.835C3.89488 12.835 3.47484 12.835 3.15398 12.6715C2.87173 12.5277 2.64226 12.2982 2.49845 12.0159C2.33496 11.6951 2.33496 11.275 2.33496 10.435V8.70996M6.08496 6.83496C6.08496 6.48647 6.08496 6.31222 6.05614 6.16733C5.93778 5.57229 5.47263 5.10714 4.8776 4.98878C4.7327 4.95996 4.55845 4.95996 4.20996 4.95996H2.70996C2.36147 4.95996 2.18722 4.95996 2.04233 4.98878C1.44729 5.10714 0.982143 5.57229 0.863783 6.16733C0.834961 6.31222 0.834961 6.48647 0.834961 6.83496C0.834961 7.18345 0.834961 7.3577 0.863783 7.5026C0.982143 8.09763 1.44729 8.56278 2.04233 8.68114C2.18722 8.70996 2.36147 8.70996 2.70996 8.70996H4.20996C4.55845 8.70996 4.7327 8.70996 4.8776 8.68114C5.47263 8.56278 5.93778 8.09763 6.05614 7.5026C6.08496 7.3577 6.08496 7.18345 6.08496 6.83496Z" stroke="#979AA0" stroke-width="1.67" stroke-linecap="round" stroke-linejoin="round"/>
</svg>
