<svg width="16" height="17" viewBox="0 0 16 17" fill="none" xmlns="http://www.w3.org/2000/svg">
<path d="M9.50767 13.8633L9.06934 14.8491C8.93904 15.1426 8.72638 15.3919 8.45717 15.5669C8.18796 15.7419 7.87376 15.835 7.55267 15.835C7.23159 15.835 6.91739 15.7419 6.64818 15.5669C6.37896 15.3919 6.16631 15.1426 6.03601 14.8491L5.59767 13.8633C5.44164 13.5135 5.17917 13.2219 4.84767 13.03C4.51409 12.8375 4.12818 12.7556 3.74517 12.7958L2.67267 12.91C2.35342 12.9437 2.03123 12.8842 1.74516 12.7385C1.45909 12.5928 1.22144 12.3672 1.06101 12.0891C0.900372 11.8112 0.823845 11.4927 0.840708 11.1721C0.857571 10.8516 0.9671 10.5428 1.15601 10.2833L1.79101 9.41079C2.01712 9.09781 2.13793 8.72107 2.13601 8.33496C2.13608 7.9499 2.01413 7.57472 1.78767 7.26329L1.15267 6.39079C0.963767 6.13128 0.854238 5.82251 0.837375 5.50197C0.820512 5.18142 0.897039 4.86287 1.05767 4.58496C1.2181 4.30689 1.45576 4.08133 1.74183 3.93563C2.02789 3.78993 2.35009 3.73036 2.66934 3.76413L3.74184 3.87829C4.12484 3.91852 4.51075 3.83655 4.84434 3.64413C5.1765 3.45115 5.43904 3.15798 5.59434 2.80663L6.03601 1.82079C6.16631 1.52734 6.37896 1.278 6.64818 1.10301C6.91739 0.928023 7.23159 0.834909 7.55267 0.834961C7.87376 0.834909 8.18796 0.928023 8.45717 1.10301C8.72638 1.278 8.93904 1.52734 9.06934 1.82079L9.50767 2.80663C9.66298 3.15798 9.92552 3.45115 10.2577 3.64413C10.5913 3.83655 10.9772 3.91852 11.3602 3.87829L12.436 3.76413C12.7553 3.73036 13.0775 3.78993 13.3635 3.93563C13.6496 4.08133 13.8872 4.30689 14.0477 4.58496C14.2083 4.86287 14.2848 5.18142 14.268 5.50197C14.2511 5.82251 14.1416 6.13128 13.9527 6.39079L13.3177 7.26329C13.0912 7.57472 12.9693 7.9499 12.9693 8.33496C12.9693 8.72002 13.0912 9.0952 13.3177 9.40663L13.9527 10.2791C14.1416 10.5386 14.2511 10.8474 14.268 11.168C14.2848 11.4885 14.2083 11.8071 14.0477 12.085C13.8871 12.3629 13.6494 12.5883 13.3634 12.734C13.0773 12.8797 12.7552 12.9394 12.436 12.9058L11.3635 12.7916C10.9805 12.7514 10.5946 12.8334 10.261 13.0258C9.92761 13.2182 9.66385 13.5115 9.50767 13.8633Z" stroke="#979AA0" stroke-width="1.67" stroke-linecap="round" stroke-linejoin="round"/>
<path d="M7.55401 10.585C6.31137 10.585 5.30401 9.5776 5.30401 8.33496C5.30401 7.09232 6.31137 6.08496 7.55401 6.08496C8.79665 6.08496 9.80401 7.09232 9.80401 8.33496C9.80401 9.5776 8.79665 10.585 7.55401 10.585Z" stroke="#979AA0" stroke-width="1.67" stroke-linecap="round" stroke-linejoin="round"/>
</svg>
