<svg width="16" height="17" viewBox="0 0 16 17" fill="none" xmlns="http://www.w3.org/2000/svg">
<path d="M4.58496 3.83496V3.23496C4.58496 2.39488 4.58496 1.97484 4.74845 1.65398C4.89226 1.37173 5.12173 1.14226 5.40398 0.998451C5.72484 0.834961 6.14488 0.834961 6.98496 0.834961H8.18496C9.02504 0.834961 9.44508 0.834961 9.76595 0.998451C10.0482 1.14226 10.2777 1.37173 10.4215 1.65398C10.585 1.97484 10.585 2.39488 10.585 3.23496V3.83496M9.08496 7.95996V11.71M6.08496 7.95996V11.71M14.335 3.83496H0.834961M2.33496 3.83496V12.235C2.33496 13.4951 2.33496 14.1251 2.5802 14.6064C2.79591 15.0298 3.14012 15.374 3.56348 15.5897C4.04478 15.835 4.67484 15.835 5.93496 15.835H9.23496C10.4951 15.835 11.1251 15.835 11.6064 15.5897C12.0298 15.374 12.374 15.0298 12.5897 14.6064C12.835 14.1251 12.835 13.4951 12.835 12.235V3.83496" stroke="#979AA0" stroke-width="1.67" stroke-linecap="round" stroke-linejoin="round"/>
</svg>
