<svg width="18" height="18" viewBox="0 0 18 18" fill="none" xmlns="http://www.w3.org/2000/svg">
<path fill-rule="evenodd" clip-rule="evenodd" d="M18 4.896C18 2.19201 15.7903 0 13.0645 0H4.93548C2.20969 0 0 2.19201 0 4.896C0 7.59999 2.20969 9.792 4.93548 9.792H8.12903V11.4898C6.98514 11.7956 6.08431 12.6893 5.77604 13.824H1.16129V15.552H5.77604C6.15914 16.9622 7.45739 18 9 18C10.5426 18 11.8409 16.9622 12.224 15.552H17.129V13.824H12.224C11.9157 12.6893 11.0149 11.7956 9.87097 11.4898V9.792H13.0645C15.7903 9.792 18 7.59999 18 4.896ZM13.0645 1.728C14.8283 1.728 16.2581 3.14636 16.2581 4.896C16.2581 6.64564 14.8283 8.064 13.0645 8.064H4.93548C3.17174 8.064 1.74194 6.64564 1.74194 4.896C1.74194 3.14636 3.17174 1.728 4.93548 1.728H13.0645ZM12.7742 5.76C12.2932 5.76 11.9032 5.37317 11.9032 4.896C11.9032 4.41883 12.2932 4.032 12.7742 4.032C13.2552 4.032 13.6452 4.41883 13.6452 4.896C13.6452 5.37317 13.2552 5.76 12.7742 5.76ZM9.43548 4.032C9.91651 4.032 10.3065 4.41883 10.3065 4.896C10.3065 5.37317 9.91651 5.76 9.43548 5.76H5.22581C4.74479 5.76 4.35484 5.37317 4.35484 4.896C4.35484 4.41883 4.74479 4.032 5.22581 4.032H9.43548ZM7.69355 14.688C7.69355 15.4038 8.27847 15.984 9 15.984C9.72153 15.984 10.3065 15.4038 10.3065 14.688C10.3065 13.9722 9.72153 13.392 9 13.392C8.27847 13.392 7.69355 13.9722 7.69355 14.688Z" fill="#979AA0"/>
</svg>
