<svg width="17" height="17" viewBox="0 0 17 17" fill="none" xmlns="http://www.w3.org/2000/svg">
<path d="M11.71 2.70996C11.71 1.67443 10.8705 0.834961 9.83496 0.834961C8.79943 0.834961 7.95996 1.67443 7.95996 2.70996V3.83496H7.20996C6.16159 3.83496 5.63741 3.83496 5.22392 4.00623C4.67261 4.23459 4.23459 4.67261 4.00623 5.22392C3.83496 5.63741 3.83496 6.16159 3.83496 7.20996H2.70996C1.67443 7.20996 0.834961 8.04943 0.834961 9.08496C0.834961 10.1205 1.67443 10.96 2.70996 10.96H3.83496V12.235C3.83496 13.4951 3.83496 14.1251 4.0802 14.6064C4.29591 15.0298 4.64012 15.374 5.06348 15.5897C5.54478 15.835 6.17484 15.835 7.43496 15.835H7.95996V14.5225C7.95996 13.5905 8.71548 12.835 9.64746 12.835C10.5794 12.835 11.335 13.5905 11.335 14.5225V15.835H12.235C13.4951 15.835 14.1251 15.835 14.6064 15.5897C15.0298 15.374 15.374 15.0298 15.5897 14.6064C15.835 14.1251 15.835 13.4951 15.835 12.235V10.96H14.71C13.6744 10.96 12.835 10.1205 12.835 9.08496C12.835 8.04943 13.6744 7.20996 14.71 7.20996H15.835C15.835 6.16159 15.835 5.63741 15.6637 5.22392C15.4353 4.67261 14.9973 4.23459 14.446 4.00623C14.0325 3.83496 13.5083 3.83496 12.46 3.83496H11.71V2.70996Z" stroke="#FFA200" stroke-width="1.67" stroke-linecap="round" stroke-linejoin="round"/>
</svg>
