<svg width="17" height="17" viewBox="0 0 17 17" fill="none" xmlns="http://www.w3.org/2000/svg">
<path d="M14.335 12.835V12.685C14.335 11.4248 14.335 10.7948 14.0897 10.3135C13.874 9.89012 13.5298 9.54591 13.1064 9.3302C12.6251 9.08496 11.9951 9.08496 10.735 9.08496H5.93496C4.67484 9.08496 4.04478 9.08496 3.56348 9.3302C3.14012 9.54591 2.79591 9.89012 2.5802 10.3135C2.33496 10.7948 2.33496 11.4248 2.33496 12.685V12.835M14.335 12.835C15.1634 12.835 15.835 13.5065 15.835 14.335C15.835 15.1634 15.1634 15.835 14.335 15.835C13.5065 15.835 12.835 15.1634 12.835 14.335C12.835 13.5065 13.5065 12.835 14.335 12.835ZM2.33496 12.835C3.16339 12.835 3.83496 13.5065 3.83496 14.335C3.83496 15.1634 3.16339 15.835 2.33496 15.835C1.50653 15.835 0.834961 15.1634 0.834961 14.335C0.834961 13.5065 1.50653 12.835 2.33496 12.835ZM8.33496 12.835C9.16339 12.835 9.83496 13.5065 9.83496 14.335C9.83496 15.1634 9.16339 15.835 8.33496 15.835C7.50653 15.835 6.83496 15.1634 6.83496 14.335C6.83496 13.5065 7.50653 12.835 8.33496 12.835ZM8.33496 12.835V5.33496M12.835 5.33496H3.83496C3.13605 5.33496 2.78659 5.33496 2.51094 5.22078C2.14339 5.06854 1.85138 4.77653 1.69914 4.40899C1.58496 4.13333 1.58496 3.78387 1.58496 3.08496C1.58496 2.38605 1.58496 2.03659 1.69914 1.76094C1.85138 1.39339 2.14339 1.10138 2.51094 0.949142C2.78659 0.834961 3.13605 0.834961 3.83496 0.834961H12.835C13.5339 0.834961 13.8833 0.834961 14.159 0.949142C14.5265 1.10138 14.8185 1.39339 14.9708 1.76094C15.085 2.03659 15.085 2.38605 15.085 3.08496C15.085 3.78387 15.085 4.13333 14.9708 4.40899C14.8185 4.77653 14.5265 5.06854 14.159 5.22078C13.8833 5.33496 13.5339 5.33496 12.835 5.33496Z" stroke="#FFA200" stroke-width="1.67" stroke-linecap="round" stroke-linejoin="round"/>
</svg>
