<svg width="17" height="16" viewBox="0 0 17 16" fill="none" xmlns="http://www.w3.org/2000/svg">
<path d="M0.834961 14.335V12.835C0.834961 11.4371 1.79104 10.2625 3.08496 9.92947M5.70996 1.05303C4.61052 1.49807 3.83496 2.57594 3.83496 3.83496C3.83496 5.09398 4.61052 6.17185 5.70996 6.61689M4.58496 14.335C4.58496 12.9371 4.58496 12.2382 4.81332 11.6869C5.1178 10.9518 5.70183 10.3678 6.43691 10.0633C6.98822 9.83496 7.68714 9.83496 9.08496 9.83496H11.335C12.7328 9.83496 13.4317 9.83496 13.983 10.0633C14.7181 10.3678 15.3021 10.9518 15.6066 11.6869C15.835 12.2382 15.835 12.9371 15.835 14.335M7.20996 3.83496C7.20996 5.49182 8.55311 6.83496 10.21 6.83496C11.8668 6.83496 13.21 5.49182 13.21 3.83496C13.21 2.17811 11.8668 0.834961 10.21 0.834961C8.55311 0.834961 7.20996 2.17811 7.20996 3.83496Z" stroke="#FFA200" stroke-width="1.67" stroke-linecap="round" stroke-linejoin="round"/>
</svg>
